<?xml version="1.0" encoding="utf-8"?>
<!-- Generator: Adobe Illustrator 23.1.1, SVG Export Plug-In . SVG Version: 6.00 Build 0)  -->
<svg version="1.1" id="Layer_1" xmlns="http://www.w3.org/2000/svg" xmlns:xlink="http://www.w3.org/1999/xlink" x="0px" y="0px"
	 viewBox="0 0 64.7 65.9" style="enable-background:new 0 0 64.7 65.9;" xml:space="preserve">
<style type="text/css">
	.st0{fill:#FFFFFF;}
	.st1{fill:#29413B;}
</style>
<g transform="translate(-24.44 -23.27)">
	<ellipse id="_x3C_Path_x3E_" class="st0" cx="56.8" cy="55.9" rx="32.3" ry="31.1"/>
	<path class="st1" d="M60.2,37.2C59.1,37.1,58,37,57,36.9c-1.1,0-2.2,0.1-3.2,0.3c-0.1,0-0.3-0.1-0.1-0.3s3.4-2.6,3.4-2.6
		s3.2,2.5,3.4,2.6S60.3,37.3,60.2,37.2z M54.6,53.2c0,0-0.1,0-0.3,0.3c0.6,0.5,1.2,1.7,2.6,1.7s1.9-1.2,2.6-1.7
		c0-0.1-0.3-0.3-0.3-0.3c-0.8,0.2-1.5,0.3-2.3,0.3C56.2,53.5,55.4,53.4,54.6,53.2z M57,51.3c-0.4,0-0.5-0.1-0.8-0.1
		s-0.6,0.2-0.9,0.4c0,0.1,0,0.1,0.1,0.3c0.5,0.2,1,0.4,1.5,0.4c0.5-0.1,1.1-0.2,1.6-0.4c0.1-0.1,0.1-0.1,0.1-0.3
		c-0.3-0.2-0.6-0.3-0.9-0.4C57.3,51,57.3,51.2,57,51.3L57,51.3z M89.1,57.3c0,0.8-0.1,1.6-0.3,2.3c-3.6,0.6-4.9-2.6-8.6-2.5
		c0.2,0.8,0.4,1.6,0.5,2.5c3.1,0,4.2,2.8,7.7,2.5c-0.1,0.9-0.3,1.7-0.6,2.6c-2.7,0.3-3.6-2.5-6.8-2.3v2.1c2.7,0,3.5,2.4,6.1,2.3
		c-0.3,0.9-0.6,1.7-1,2.6c-1.8-0.1-2.4-2.4-5.3-2.3c-0.1,0.6-0.1,1.2-0.3,1.8c2.4-0.1,3,2.1,4.6,2.2c-0.4,0.8-0.9,1.6-1.4,2.3
		c-1-0.5-1.9-2.2-3.9-2.3c0.2-0.6,0.4-1.3,0.5-1.9c-2,0-3.9-0.8-5.4-2.2c0.5-3.1-4.3-6.2-4.3-8.4c0-2.5,1.3-3.7,1.3-7.1
		c-0.1-2.6-1.1-5-3-6.8c-0.3-0.4-0.7-0.7-1.2-0.9c1.8,2,2.8,4.6,2.9,7.2c0,3.1-1.4,4.8-1.4,7.6s4.1,5.3,4.1,8.3
		c0,1.2-0.4,2.3-1.5,4.5c1.6,1.6,3.7,2.6,5.9,2.8c0.5,0,0.8-0.1,0.9-0.5s0.3-0.6,0.4-1c1.7,0.1,2.4,1.5,3.4,2.2
		c-0.5,0.7-1.1,1.4-1.7,2.1c-0.7-1-1.6-1.7-2.7-2.2c-0.3,0.4-0.5,0.8-0.6,1.3c1,0.3,1.8,1.4,2.3,2.1c-0.6,0.6-1.2,1.2-1.9,1.8
		c-0.5-0.8-1.1-1.4-1.8-1.9c-0.3,0.4-0.5,0.6-0.8,1c0.6,0.5,1.2,1.1,1.5,1.8c-0.7,0.6-1.5,1.2-2.3,1.7c-0.4-3.2-4.9-5.5-3.6-9.3
		c-0.5,0.7-0.8,1.6-0.9,2.4c0,2.7,3,4.9,3.1,7.6c-0.6,0.4-1.3,0.6-1.8,1c-0.1-3-3.2-6.3-3.2-8.8c0-2.7,3.6-5.5,3.6-8.8
		c0-3.2-4.1-5.5-4.1-8.4s1.8-4.5,1.8-8.1c0-2.7-1.2-5.3-3.2-7.1c-0.4-0.3-0.8-0.6-1.2-0.9c1.9,2,2.9,4.6,3,7.3
		c0,3.5-2.1,5.3-2.1,8.6s4.1,5.3,4.1,8.4c0,3.1-3.7,5.8-3.7,9c0,3,3.4,5.8,3.4,9.3c-0.8,0.3-1.4,0.6-2.2,0.9
		c0.4-3.5-3.4-7.1-3.4-9.9c0-3.1,4-5.8,4-9.2c0-3.4-4-4.9-4-8.4s2.4-5.4,2.4-9.1c0-2.9-1.3-5.6-3.6-7.3l-0.1-0.1
		c-0.3-0.1-0.4,0-0.3,0.3c1.6,1.9,2.4,4.3,2.3,6.7c0,3.5-2.8,6.3-2.8,9.8c0,4,3.7,5.2,3.7,8.4c0,3.2-4,5.9-4,9.4
		c0,3.2,3.9,6.8,3.2,10.6c-0.8,0.2-1.5,0.4-2.3,0.5c0.8-4.6-3.1-8-3.1-11c0-3.4,4.2-6.2,4.2-9.4c0-3.1-3-4-3.4-7.1
		c0-0.4-0.3-0.7-0.7-0.7c-0.1,0-0.1,0-0.2,0c-0.8,0.3-1.7,0.5-2.6,0.5c-0.9,0-1.8-0.2-2.6-0.5c-0.5-0.1-0.8,0.3-0.9,0.6
		C52.9,63,50,64,50,67c0,3.2,4.2,6.2,4.2,9.4c0,3.1-3.7,6.3-3.1,11c-0.8-0.1-1.6-0.3-2.3-0.5c-0.6-3.7,3.2-7.3,3.2-10.6
		c0-3.5-4-6.1-4-9.4c0-3.2,3.7-4.4,3.7-8.4c0-3.4-2.8-6.2-2.8-9.8c-0.1-2.4,0.7-4.8,2.3-6.7c0.1-0.1,0-0.4-0.3-0.3l-0.1,0.1
		c-2.3,1.8-3.6,4.5-3.6,7.3c0,3.9,2.5,5.8,2.5,9.1s-4,5-4,8.4s3.9,6.1,3.9,9.1c0,2.8-3.7,6.4-3.4,9.9c-0.8-0.2-1.5-0.5-2.2-0.9
		c0-3.5,3.4-6.4,3.4-9.3c0-3.2-3.7-5.8-3.7-9c0-3.1,4.1-5,4.1-8.4s-2.1-5.3-2.1-8.6c0-3.1,1-5,3-7.3L47.6,43c-2,1.8-3.2,4.4-3.2,7.1
		c0,3.6,1.8,5.3,1.8,8.1S42,63.4,42,66.6s3.6,6.1,3.6,8.8c0,2.4-3.1,5.8-3.2,8.8c-0.6-0.4-1.3-0.6-1.8-1c0.3-2.7,3.1-4.9,3.1-7.6
		c-0.1-0.9-0.4-1.7-0.9-2.4c1.2,3.7-3.2,6.1-3.6,9.3c-0.8-0.5-1.5-1.2-2.3-1.7c0.4-0.7,0.9-1.3,1.5-1.8c-0.3-0.4-0.5-0.6-0.8-1
		c-0.8,0.5-1.4,1.1-1.8,1.9c-0.7-0.6-1.3-1.2-1.9-1.8c0.5-0.6,1.3-1.8,2.3-2.1c-0.3-0.4-0.5-0.8-0.6-1.3c-1.1,0.5-2,1.2-2.7,2.2
		c-0.6-0.7-1.2-1.3-1.7-2.1c0.9-0.6,1.7-2.2,3.4-2.2c0.1,0.4,0.3,0.6,0.4,1c0.2,0.4,0.5,0.6,0.9,0.5c2.2-0.2,4.3-1.2,5.9-2.8
		c-1.2-2.2-1.5-3.4-1.5-4.5c0-3,4.1-5.4,4.1-8.3S43,54,43,50.9c0.1-2.7,1.1-5.2,2.8-7.2c-0.4,0.3-0.8,0.6-1.2,0.9
		c-1.8,1.8-2.9,4.3-3,6.8c0,3.2,1.3,4.6,1.3,7.1c0,2.2-4.8,5.3-4.2,8.4c-1.5,1.4-3.4,2.2-5.4,2.2c0.1,0.6,0.4,1.3,0.5,1.9
		c-1.9,0.1-2.8,1.8-3.9,2.3c-0.5-0.7-1-1.5-1.4-2.3c1.7-0.1,2.2-2.4,4.6-2.2c-0.2-0.6-0.2-1.2-0.3-1.8c-2.8-0.1-3.4,2.2-5.3,2.3
		c-0.4-0.8-0.8-1.7-1-2.6c2.6,0.1,3.4-2.3,6.1-2.3v-1.9c-3.1-0.1-4.1,2.6-6.8,2.3c-0.3-0.8-0.5-1.7-0.6-2.6c3.5,0.4,4.6-2.5,7.7-2.5
		c0.1-0.8,0.3-1.6,0.5-2.5c-3.7-0.1-5,3.1-8.6,2.5c-0.1-0.8-0.1-1.5-0.3-2.3c4.2,0.5,5.8-3,9.7-2.6c0.4-0.9,0.8-1.8,1.3-2.7
		c-4.8-0.9-6.4,3.2-11,2.6c0.7-17.4,15-31.2,32.4-31.3c17.4,0,31.7,13.9,32.2,31.3c-4.5,0.6-6.2-3.5-11-2.6c0.5,0.9,0.9,1.8,1.3,2.7
		C83.2,54.2,84.8,57.7,89.1,57.3z M43,43.8c-2.5-1-5.4-0.7-7.7,0.8c-0.4-2.2-1.6-4.2-3.4-5.5c-0.3-0.1-0.5,0-0.5,0.3
		c0.4,4.8-2.5,9-5.9,12.6c3.6,1,6.6-3.5,11.2-1.9C38.5,47.6,40.6,45.5,43,43.8z M56.9,40.8c-3,0-5.5,1.7-6.2,3.9
		c0,0.1,0,0.3,0.3,0.1c0.6-0.3,1.2-0.4,1.8-0.4c1.1-0.1,2.2,0.4,3,1.3c0.3,1,0.3,2.1,0,3.1c-0.5-0.1-0.6-0.5-1.2-0.5
		s-0.9,0.4-1.7,0.4s-0.9-0.4-1.4-0.4c-0.6,0-0.8,0.6-0.8,1.4c0,3.4,3.1,7.9,6.3,7.9s6.3-4.6,6.3-7.9c0-0.8-0.1-1.4-0.8-1.4
		c-0.4,0.3-0.9,0.5-1.4,0.5c-0.8,0-1-0.4-1.5-0.4c-0.6,0-0.5,1.3-1.3,1.3c-0.5-1.2-0.5-2.6-0.1-3.9c0.7-0.8,1.8-1.3,3-1.3
		c0.6,0,1.2,0.1,1.8,0.4c0.3,0.1,0.3,0,0.3-0.1C62.1,42.3,59.7,40.8,56.9,40.8z M61.7,45.6c-0.8,0-1.5,0.3-2.1,0.8v0.5
		c1.3-0.4,2.5-0.5,3,0.1c0.2-0.2,0.4-0.5,0.4-0.8C63,45.9,62.5,45.6,61.7,45.6L61.7,45.6z M51.3,47.1c0.6-0.6,1.9-0.6,3.4-0.1
		c0-0.6-1.2-1.4-2.3-1.4c-0.9,0-1.3,0.3-1.3,0.8C50.9,46.6,50.9,46.9,51.3,47.1L51.3,47.1z M71.8,35.9c-2.2,0.1-4.3,1-6.1,2.3
		c0.6-1.9,1.5-3.7,2.7-5.4C65.6,33,63,34.2,61,36.2l-1.4-3.7l3.2-2.8l-4.2-0.3l-1.7-4l-1.7,4l-4.4,0.1l3.2,2.8L52.7,36
		c-2-2-4.6-3.1-7.3-3.4c1.2,1.7,2.1,3.5,2.7,5.4c-1.7-1.4-3.9-2.2-6.1-2.3c1.4,1.8,2.7,3.7,3.6,5.8c0.1,0.2,0.2,0.3,0.4,0.2
		c0,0,0.1,0,0.1-0.1c6.8-3.3,14.6-3.3,21.4,0c0.3,0.1,0.5,0,0.5-0.1C69.1,39.6,70.4,37.7,71.8,35.9z M76.9,50.1
		c4.6-1.5,7.6,3,11.2,1.9c-3.5-3.7-6.3-7.9-5.9-12.6c0-0.3-0.3-0.4-0.5-0.3c-1.8,1.3-3.1,3.3-3.4,5.5c-2.3-1.5-5.2-1.8-7.7-0.7
		C73.1,45.5,75.3,47.6,76.9,50.1z"/>
	<path class="st1" d="M77.7,83.7c1.5,0,2.7,1.2,2.7,2.7s-1.1,2.7-2.6,2.7h-0.1c-1.5,0-2.7-1.2-2.7-2.7
		C75.1,84.9,76.2,83.8,77.7,83.7z M77.7,88.6c1.3-0.1,2.3-1.2,2.2-2.4c-0.1-1.2-1-2.1-2.2-2.2c-1.2,0-2.2,1-2.2,2.2v0.1
		C75.5,87.5,76.5,88.6,77.7,88.6L77.7,88.6z M76.8,84.7H78c0.8,0,1,0.3,1,0.9c0,0.4-0.3,0.8-0.8,0.9l0.9,1.4h-0.5l-0.9-1.3h-0.5V88
		h-0.5v-3.2L76.8,84.7z M77.2,86.2h0.5c0.4,0,0.8,0,0.8-0.5c0-0.4-0.4-0.5-0.6-0.5h-0.6L77.2,86.2z"/>
</g>
</svg>
